<svg id="svg" version="1.1" xmlns="http://www.w3.org/2000/svg" xmlns:xlink="http://www.w3.org/1999/xlink" width="400" height="400" viewBox="0, 0, 400,400"><g id="svgg"><path id="path0" d="M184.810 95.113 C 103.359 107.154,65.241 200.866,115.018 266.694 C 119.329 272.394,125.118 278.850,127.883 281.041 L 132.911 285.023 132.911 271.636 L 132.911 258.250 128.282 252.226 C 109.406 227.664,106.862 191.480,121.853 160.759 C 139.287 125.034,186.416 104.604,223.734 116.596 L 227.848 117.918 227.848 160.278 L 227.848 202.638 237.658 202.268 L 247.468 201.899 247.800 153.579 L 248.131 105.259 238.306 101.496 C 221.879 95.204,201.026 92.716,184.810 95.113 M265.823 131.160 C 265.823 143.066,265.919 143.463,270.232 149.339 C 317.855 214.213,257.191 307.655,180.380 287.740 L 171.519 285.443 171.185 243.354 L 170.852 201.266 161.375 201.266 L 151.899 201.266 151.899 249.437 L 151.899 297.608 159.023 300.758 C 179.107 309.640,209.347 311.037,230.380 304.054 C 308.486 278.123,331.499 184.555,274.263 125.633 C 265.835 116.956,265.823 116.964,265.823 131.160 M189.873 200.633 L 189.873 241.772 199.367 241.772 L 208.861 241.772 208.861 200.633 L 208.861 159.494 199.367 159.494 L 189.873 159.494 189.873 200.633 " stroke="none" fill="#000000" fill-rule="evenodd"></path></g></svg>