<?xml version="1.0" standalone="no"?>
<!DOCTYPE svg PUBLIC "-//W3C//DTD SVG 20010904//EN"
 "http://www.w3.org/TR/2001/REC-SVG-20010904/DTD/svg10.dtd">
<svg version="1.0" xmlns="http://www.w3.org/2000/svg"
 width="1024.000000pt" height="1024.000000pt" viewBox="0 0 1024.000000 1024.000000"
 preserveAspectRatio="xMidYMid meet">

<g transform="translate(0.000000,1024.000000) scale(0.100000,-0.100000)"
fill="#000000" stroke="none">
<path d="M3528 8295 c-122 -30 -211 -94 -330 -237 -195 -234 -338 -705 -338
-1108 0 -172 21 -271 88 -410 51 -107 178 -231 333 -325 185 -112 272 -216
333 -397 14 -42 26 -96 26 -121 l0 -45 70 29 c79 32 161 49 235 49 l52 0 12
110 c14 132 40 221 91 315 57 103 114 181 210 285 202 220 248 334 237 590
-13 301 -135 651 -308 880 -243 323 -466 444 -711 385z"/>
<path d="M5951 8193 l-54 -4 5 -591 c5 -566 4 -592 -13 -609 -26 -26 -45 -24
-65 6 -15 23 -16 83 -16 605 l1 580 -27 0 c-15 0 -43 -3 -63 -6 l-36 -6 -7
-447 c-7 -507 -17 -714 -36 -736 -18 -22 -47 -18 -65 8 -13 21 -14 44 -5 178
6 85 13 344 17 577 l6 423 -76 -2 c-43 -2 -77 -3 -77 -3 0 -1 -7 -71 -15 -156
-7 -85 -20 -229 -29 -320 -8 -91 -17 -208 -21 -260 -3 -52 -13 -169 -21 -260
-9 -91 -13 -193 -10 -228 13 -125 68 -247 158 -351 22 -25 56 -70 77 -102 l38
-57 9 -168 c15 -287 11 -2970 -5 -3424 -16 -456 -17 -448 67 -497 38 -23 58
-27 117 -28 60 0 81 5 130 30 102 52 108 84 80 400 -23 266 -40 1024 -60 2640
-3 259 -10 601 -15 760 -12 361 -11 365 99 493 71 82 93 125 116 218 18 76 16
125 -30 564 -23 228 -55 609 -55 666 0 28 -3 66 -6 83 -5 26 -11 31 -33 29
-14 -1 -50 -3 -80 -5z m-65 -5598 c9 -14 17 -43 18 -65 1 -51 -37 -93 -84 -93
-62 0 -119 90 -90 143 14 27 43 39 97 39 35 1 46 -4 59 -24z"/>
<path d="M6743 5843 c-43 -6 -43 -33 -1 -53 67 -32 69 -41 72 -301 4 -284 -2
-345 -39 -393 -15 -20 -36 -36 -46 -36 -11 0 -19 -6 -19 -14 0 -20 74 -26 313
-26 125 0 216 -4 228 -10 14 -8 20 -8 23 2 47 166 58 220 49 229 -7 7 -17 -1
-33 -26 -32 -51 -74 -75 -135 -75 -61 0 -70 5 -92 55 -14 33 -18 80 -21 260
-4 233 2 289 39 326 10 10 33 19 49 19 33 0 38 11 14 31 -13 10 -61 14 -193
15 -97 1 -191 0 -208 -3z"/>
<path d="M3946 5594 c-38 -9 -121 -36 -185 -61 l-116 -45 0 -1624 c1 -1621 1
-1624 21 -1651 37 -49 82 -73 138 -73 76 1 129 28 155 82 19 40 21 61 21 231
l0 187 33 0 c385 6 628 93 846 304 135 132 238 304 281 472 24 93 25 116 5
154 -29 55 -60 63 -234 58 -91 -3 -165 -9 -178 -16 -13 -7 -28 -33 -39 -64
-57 -174 -183 -345 -319 -433 -80 -52 -360 -144 -387 -128 -12 6 -9 1870 2
1920 15 62 56 148 92 188 52 60 110 87 194 93 205 13 301 -90 380 -408 58
-236 77 -255 250 -248 149 6 179 40 177 204 -3 220 -93 433 -253 595 -122 124
-314 232 -469 265 -87 18 -324 17 -415 -2z"/>
<path d="M3263 5360 c-265 -238 -398 -478 -466 -845 -20 -108 -22 -151 -22
-425 1 -330 11 -437 61 -607 24 -83 96 -238 137 -297 63 -90 132 -168 193
-222 104 -90 164 -136 165 -127 1 4 1 388 -1 853 l-2 846 31 49 31 49 0 407
c0 224 -4 410 -8 413 -5 3 -58 -40 -119 -94z"/>
<path d="M6686 4779 c-110 -22 -177 -55 -239 -115 -88 -88 -136 -228 -137
-399 0 -216 91 -375 263 -460 71 -35 83 -38 190 -43 215 -9 249 7 261 126 16
161 66 248 114 200 32 -32 68 74 51 152 -17 76 -34 86 -154 93 -57 3 -114 11
-126 18 -20 10 -26 8 -46 -15 -34 -40 -30 -69 13 -89 53 -26 68 -70 61 -184
-7 -122 -14 -133 -80 -133 -66 0 -135 32 -203 93 -126 114 -159 340 -75 512
66 134 187 152 258 40 15 -25 37 -60 48 -77 24 -38 112 -89 155 -90 51 -2 82
30 107 108 26 80 58 114 107 114 41 0 66 -26 86 -88 26 -80 40 -62 75 96 22
97 29 145 21 147 -6 2 -157 6 -336 8 -287 4 -335 3 -414 -14z"/>
<path d="M6645 3740 c-113 -24 -258 -94 -307 -148 -46 -51 -62 -100 -62 -187
0 -107 57 -198 148 -234 103 -40 132 -45 221 -44 154 3 290 49 386 131 l40 35
32 -31 c38 -35 85 -60 185 -96 126 -45 259 -30 330 37 43 41 104 125 94 130
-4 3 -45 -10 -92 -29 -68 -27 -99 -33 -155 -33 -38 0 -86 6 -105 13 -81 29
-145 174 -144 324 l1 83 -76 -3 c-69 -3 -76 -5 -73 -23 1 -11 5 -63 8 -115 5
-86 3 -99 -18 -139 -50 -97 -205 -166 -368 -166 -81 0 -102 4 -145 25 -68 34
-98 90 -93 173 5 71 41 126 118 180 104 72 162 70 200 -8 18 -38 21 -55 16
-99 -4 -30 -14 -62 -21 -72 -39 -51 15 -60 86 -15 111 70 107 225 -8 289 -46
25 -137 36 -198 22z"/>
<path d="M27 103 c-25 -4 -27 -8 -27 -54 0 -48 1 -49 30 -49 30 0 30 1 30 55
0 30 -1 54 -2 54 -2 -1 -15 -4 -31 -6z"/>
</g>
</svg>
