<?xml version="1.0" encoding="utf-8"?><svg version="1.1" id="Layer_1" xmlns="http://www.w3.org/2000/svg" xmlns:xlink="http://www.w3.org/1999/xlink" x="0px" y="0px" viewBox="0 0 105.29 122.88" style="enable-background:new 0 0 105.29 122.88" xml:space="preserve"><style type="text/css">.st0{fill-rule:evenodd;clip-rule:evenodd;}</style><g><path class="st0" d="M11.1,122.88h83.08c5.37,0,12.22-6.91,10.95-12.13L91.19,53.46c-3.02-12.42-7.24-19.22-21.02-19.22H59.56 c6.34-2.74,10.78-9.05,10.78-16.39C70.34,7.99,62.35,0,52.49,0c-9.86,0-17.85,7.99-17.85,17.85c0,7.35,4.44,13.66,10.78,16.39 h-9.35c-13.73,0-19.5,7.72-22.33,19.56l-13.6,56.95C-1.1,115.97,5.73,122.88,11.1,122.88L11.1,122.88z M36.12,70.41h4.93v18.6 h-4.93V70.41L36.12,70.41z M43.39,70.41h4.98v6.42c0.49-0.54,1.05-0.94,1.68-1.22c0.62-0.27,1.31-0.4,2.07-0.4 c1.56,0,2.86,0.59,3.88,1.77c1.02,1.18,1.53,2.88,1.53,5.09c0,1.47-0.24,2.77-0.7,3.9c-0.47,1.12-1.11,1.96-1.94,2.52 c-0.83,0.55-1.74,0.83-2.75,0.83c-0.86,0-1.65-0.2-2.37-0.58c-0.54-0.31-1.13-0.88-1.77-1.72v2h-4.61V70.41L43.39,70.41z M48.33,82.21c0,1.16,0.21,2.01,0.62,2.53c0.41,0.52,0.94,0.78,1.57,0.78c0.59,0,1.08-0.26,1.48-0.77c0.4-0.52,0.6-1.38,0.6-2.59 c0-1.07-0.19-1.86-0.59-2.36c-0.39-0.5-0.86-0.75-1.42-0.75c-0.67,0-1.21,0.26-1.63,0.78C48.54,80.36,48.33,81.15,48.33,82.21 L48.33,82.21z M58.19,85.27l4.88-0.47c0.2,0.61,0.48,1.04,0.85,1.3c0.36,0.26,0.85,0.39,1.45,0.39c0.66,0,1.17-0.15,1.53-0.45 c0.28-0.22,0.43-0.49,0.43-0.82c0-0.37-0.19-0.66-0.56-0.87c-0.26-0.14-0.97-0.32-2.11-0.53c-1.71-0.31-2.89-0.6-3.56-0.87 c-0.66-0.26-1.22-0.72-1.68-1.35c-0.45-0.64-0.68-1.36-0.68-2.17c0-0.89,0.24-1.65,0.73-2.29c0.49-0.65,1.17-1.13,2.03-1.44 c0.86-0.32,2.02-0.48,3.47-0.48c1.53,0,2.66,0.12,3.38,0.37c0.73,0.25,1.34,0.63,1.82,1.14c0.49,0.52,0.89,1.22,1.21,2.1 l-4.66,0.47c-0.12-0.43-0.32-0.74-0.6-0.95c-0.38-0.27-0.85-0.4-1.4-0.4c-0.55,0-0.96,0.1-1.21,0.31 c-0.25,0.21-0.38,0.46-0.38,0.75c0,0.33,0.16,0.58,0.48,0.75c0.32,0.17,1.02,0.32,2.1,0.46c1.64,0.19,2.85,0.47,3.65,0.81 c0.8,0.35,1.41,0.84,1.83,1.48c0.42,0.65,0.64,1.35,0.64,2.12c0,0.78-0.22,1.54-0.67,2.27c-0.45,0.74-1.15,1.32-2.11,1.76 c-0.96,0.44-2.27,0.65-3.93,0.65c-2.34,0-4.02-0.35-5.01-1.06C59.11,87.56,58.47,86.56,58.19,85.27L58.19,85.27z M52.64,53.11 c14.25,0,25.8,11.55,25.8,25.8s-11.55,25.8-25.8,25.8c-14.25,0-25.8-11.55-25.8-25.8S38.4,53.11,52.64,53.11L52.64,53.11z M52.49,10.41c4.11,0,7.44,3.33,7.44,7.44c0,4.11-3.33,7.44-7.44,7.44c-4.11,0-7.44-3.33-7.44-7.44 C45.06,13.74,48.39,10.41,52.49,10.41L52.49,10.41z"/></g></svg>